<?xml version="1.0" standalone="no"?>
<!DOCTYPE svg PUBLIC "-//W3C//DTD SVG 20010904//EN"
 "http://www.w3.org/TR/2001/REC-SVG-20010904/DTD/svg10.dtd">
<svg version="1.0" xmlns="http://www.w3.org/2000/svg"
 width="248.000000pt" height="255.000000pt" viewBox="0 0 248.000000 255.000000"
 preserveAspectRatio="xMidYMid meet">

<g transform="translate(0.000000,255.000000) scale(0.100000,-0.100000)"
fill="#000000" stroke="none">
<path d="M1540 2454 c0 -13 3 -14 13 -5 8 6 17 8 20 4 4 -3 7 -1 7 5 0 7 -9
12 -20 12 -12 0 -20 -7 -20 -16z"/>
<path d="M1800 2413 c0 -21 12 -72 25 -113 14 -41 25 -75 25 -76 0 -1 -11 -1
-24 0 -35 4 -88 27 -110 48 -11 10 -23 18 -28 18 -4 0 -8 6 -8 13 0 17 -45 67
-60 67 -7 0 2 -13 20 -30 41 -38 31 -54 -26 -45 -35 5 -45 3 -50 -9 -4 -12
-20 -16 -55 -16 -27 0 -49 -4 -49 -10 0 -5 26 -10 57 -10 42 0 54 -3 46 -11
-16 -16 -92 -23 -133 -12 -39 10 -55 43 -21 43 11 0 23 5 26 10 4 6 -7 10 -25
10 -17 0 -29 -4 -25 -9 3 -5 -4 -16 -15 -24 -20 -14 -19 -14 8 -27 15 -7 55
-15 90 -18 54 -4 67 -2 92 17 16 11 44 21 62 22 l33 1 -37 10 c-21 6 -38 15
-38 20 0 6 9 7 23 4 12 -4 41 -10 65 -13 47 -6 57 -22 15 -24 -17 -1 -8 -5 22
-10 27 -4 61 -11 75 -15 l25 -7 -30 -7 c-16 -4 -55 -9 -85 -10 -30 -2 -45 -5
-32 -7 12 -2 20 -9 17 -14 -4 -5 1 -9 9 -9 8 0 17 4 20 9 3 5 19 11 35 13 21
3 28 1 24 -9 -3 -7 -14 -14 -24 -14 -10 -1 -23 -3 -29 -4 -5 -1 -14 -3 -20 -4
-5 0 -10 -12 -10 -25 0 -14 -4 -28 -10 -31 -5 -3 -10 -14 -9 -23 0 -13 2 -12
9 4 5 12 13 25 19 29 6 3 11 14 11 23 0 11 8 18 20 18 17 0 18 -2 5 -16 -8 -9
-15 -20 -15 -25 0 -5 10 2 21 14 17 18 23 20 31 9 7 -9 8 -7 4 8 -11 36 25 58
81 50 26 -3 54 -12 61 -20 12 -11 7 -18 -27 -42 -42 -30 -56 -68 -23 -62 9 2
18 10 18 18 1 8 2 20 3 25 1 13 54 45 73 45 9 -1 8 -5 -5 -14 -15 -11 -15 -15
-3 -25 8 -6 12 -21 9 -31 -4 -16 0 -20 21 -20 16 0 26 -5 26 -15 0 -8 7 -15
15 -15 8 0 15 4 15 9 0 5 -7 11 -15 15 -8 3 -15 12 -15 21 0 8 -4 15 -10 15
-5 0 -10 -4 -10 -10 0 -5 -5 -10 -11 -10 -6 0 -8 7 -5 16 4 9 1 23 -5 30 -9
11 -7 14 8 14 15 0 19 6 18 28 -1 16 -5 33 -8 40 -4 6 -1 30 8 54 8 24 15 52
16 63 0 16 3 14 14 -10 13 -27 14 -28 15 -7 0 12 -5 31 -12 41 -12 19 -12 19
-30 -2 -13 -15 -17 -30 -13 -51 5 -23 4 -27 -4 -16 -9 12 -11 9 -12 -15 -1
-16 -1 -45 0 -62 3 -37 -7 -41 -47 -16 -38 23 -62 54 -62 80 0 12 -4 24 -9 27
-5 3 -12 27 -15 53 -4 27 -9 56 -12 66 -3 9 -1 17 3 17 13 0 33 -61 33 -99 0
-19 4 -30 10 -26 24 15 -10 118 -45 138 -12 6 -15 1 -15 -30z"/>
<path d="M1660 2418 c0 -23 34 -88 46 -88 3 0 -1 11 -10 24 -9 14 -14 39 -12
55 2 21 -1 31 -10 31 -8 0 -14 -10 -14 -22z"/>
<path d="M1540 2426 c0 -9 30 -14 35 -6 4 6 -3 10 -14 10 -12 0 -21 -2 -21 -4z"/>
<path d="M1706 2416 c3 -9 10 -16 16 -16 5 0 20 -11 33 -25 14 -13 25 -20 25
-15 0 4 -18 23 -40 40 -23 18 -37 25 -34 16z"/>
<path d="M873 2368 c-16 -17 -52 -56 -81 -86 -29 -30 -51 -56 -49 -58 4 -4 87
76 129 125 25 30 30 32 80 26 35 -3 45 -2 28 3 -72 24 -78 24 -107 -10z"/>
<path d="M1420 2398 c0 -3 8 -12 17 -19 14 -12 16 -12 8 0 -6 11 -4 13 9 8 10
-4 30 -10 44 -13 22 -5 24 -3 12 6 -12 9 -9 10 15 5 17 -3 39 -8 50 -12 16 -4
18 -3 8 7 -11 12 -163 28 -163 18z"/>
<path d="M1340 2371 c0 -15 6 -21 21 -21 14 0 19 5 17 17 -5 26 -38 29 -38 4z
m30 -1 c0 -5 -4 -10 -10 -10 -5 0 -10 5 -10 10 0 6 5 10 10 10 6 0 10 -4 10
-10z"/>
<path d="M1030 2360 c8 -5 26 -10 40 -10 20 0 22 2 10 10 -8 5 -26 10 -40 10
-20 0 -22 -2 -10 -10z"/>
<path d="M1460 2360 c0 -5 3 -10 8 -10 4 0 22 -9 41 -21 27 -16 31 -23 20 -30
-11 -7 -9 -9 9 -9 33 0 27 15 -15 41 -21 13 -39 27 -41 31 -5 11 -22 10 -22
-2z"/>
<path d="M1710 2362 c0 -5 7 -15 16 -22 21 -18 37 -50 25 -50 -5 0 -17 7 -25
16 -9 8 -16 11 -16 5 0 -5 10 -17 22 -25 25 -18 42 -21 34 -7 -3 5 1 12 10 15
8 3 12 2 9 -4 -8 -14 11 -46 32 -54 14 -6 13 -3 -4 13 -12 12 -20 27 -17 34 2
7 0 24 -5 38 -10 24 -10 24 -10 2 -1 -24 -21 -33 -21 -10 0 6 -12 23 -25 36
-14 13 -25 19 -25 13z"/>
<path d="M1551 2357 c22 -18 99 -53 99 -46 0 5 -21 19 -46 29 -42 18 -64 25
-53 17z"/>
<path d="M897 2332 c-10 -10 -17 -23 -17 -28 1 -5 9 0 18 12 10 11 24 23 32
27 12 4 12 6 -1 6 -9 1 -23 -7 -32 -17z"/>
<path d="M1108 2343 c6 -2 18 -2 25 0 6 3 1 5 -13 5 -14 0 -19 -2 -12 -5z"/>
<path d="M995 2323 c63 -19 112 -28 104 -19 -9 10 -110 36 -134 35 -11 0 3 -8
30 -16z"/>
<path d="M1195 2324 c28 -8 64 -17 80 -20 l30 -5 -32 15 c-18 8 -54 17 -80 20
l-48 6 50 -16z"/>
<path d="M837 2267 c-16 -18 -45 -49 -65 -69 -20 -21 -33 -38 -29 -38 10 0
127 122 127 132 0 12 -2 10 -33 -25z"/>
<path d="M1160 2289 c55 -16 98 -22 80 -10 -8 5 -37 12 -65 15 -46 5 -47 5
-15 -5z"/>
<path d="M1333 2293 c9 -2 23 -2 30 0 6 3 -1 5 -18 5 -16 0 -22 -2 -12 -5z"/>
<path d="M1458 2293 c6 -2 18 -2 25 0 6 3 1 5 -13 5 -14 0 -19 -2 -12 -5z"/>
<path d="M2114 2292 c-7 -4 -13 -16 -16 -27 -2 -11 -12 -20 -23 -21 -34 -2
-36 -4 -23 -17 10 -11 16 -10 35 7 13 11 23 25 23 32 0 8 6 11 15 8 9 -4 15 0
15 7 0 11 3 11 10 -1 8 -13 10 -12 10 3 0 17 -25 23 -46 9z"/>
<path d="M2070 2260 c0 -5 5 -10 10 -10 6 0 10 5 10 10 0 6 -4 10 -10 10 -5 0
-10 -4 -10 -10z"/>
<path d="M2125 2233 c-42 -57 -83 -81 -86 -50 -1 6 -2 17 -4 22 -1 6 -3 15 -4
20 -2 15 -21 -18 -21 -37 0 -10 6 -18 14 -18 8 0 16 -5 18 -11 4 -12 7 -11 65
19 29 15 56 15 47 0 -4 -7 -3 -8 5 -4 6 4 9 11 6 16 -3 4 10 8 29 7 31 -1 33
-2 18 -15 -12 -9 -13 -12 -3 -10 18 5 38 35 29 44 -4 3 -15 3 -25 -1 -24 -9
-93 -15 -93 -7 0 3 7 14 17 24 9 10 14 20 12 23 -3 2 -14 -8 -24 -22z"/>
<path d="M633 2114 c-51 -53 -93 -100 -93 -105 0 -5 14 6 30 24 94 99 132 137
138 137 4 0 13 9 20 20 26 41 -6 16 -95 -76z"/>
<path d="M1595 2180 c-3 -5 1 -10 9 -10 8 0 18 5 21 10 3 6 -1 10 -9 10 -8 0
-18 -4 -21 -10z"/>
<path d="M1620 2155 c-14 -8 -20 -14 -15 -14 6 0 21 6 35 14 14 8 21 14 15 14
-5 0 -21 -6 -35 -14z"/>
<path d="M1838 2152 c-38 -17 -51 -42 -22 -42 8 0 13 4 10 9 -3 5 13 18 37 30
49 25 29 27 -25 3z"/>
<path d="M2156 2155 c-21 -16 -71 -21 -62 -6 4 5 -3 7 -13 4 -11 -3 -22 -11
-25 -19 -4 -11 5 -14 42 -14 26 0 58 -3 71 -7 17 -4 22 -3 17 5 -4 7 -17 12
-29 12 -20 0 -19 2 8 20 17 11 26 20 20 20 -5 -1 -19 -7 -29 -15z"/>
<path d="M1557 2142 c-25 -28 -21 -42 13 -42 26 0 29 2 18 14 -7 8 -16 12 -20
9 -13 -7 -9 12 4 25 7 7 10 12 7 12 -3 0 -13 -8 -22 -18z"/>
<path d="M700 2121 c-17 -15 -30 -31 -30 -35 0 -5 -8 -15 -18 -24 -10 -10 -11
-12 -2 -7 15 10 54 48 79 78 22 27 3 19 -29 -12z"/>
<path d="M1630 2128 c-21 -9 -22 -12 -8 -15 10 -3 25 3 34 11 18 18 10 19 -26
4z"/>
<path d="M1730 2089 c-37 -46 -38 -57 -1 -20 17 17 31 36 31 41 0 15 -3 13
-30 -21z"/>
<path d="M2064 2094 c3 -9 6 -18 6 -20 0 -2 7 -4 16 -4 11 0 14 5 10 16 -3 9
-6 18 -6 20 0 2 -7 4 -16 4 -11 0 -14 -5 -10 -16z"/>
<path d="M2215 2099 c14 -6 2 -8 -40 -4 -56 4 -58 4 -35 -10 l25 -14 -24 -1
c-24 0 -24 -1 -5 -14 10 -8 21 -11 24 -6 3 4 26 11 53 15 26 4 47 11 47 16 0
10 -34 29 -52 28 -7 0 -4 -5 7 -10z"/>
<path d="M2034 2005 c1 -59 5 -85 13 -85 6 0 11 10 11 23 -1 12 -1 36 0 52 l2
30 20 -30 c20 -31 28 -19 10 15 -8 16 -7 18 4 14 11 -4 13 0 9 15 -3 12 -10
21 -15 21 -5 0 -6 -4 -3 -10 3 -5 1 -10 -4 -10 -6 0 -11 5 -11 10 0 6 -7 10
-16 10 -8 0 -13 4 -9 9 3 5 2 12 -3 15 -5 3 -8 -33 -8 -79z"/>
<path d="M1671 2053 c-8 -13 -10 -14 -11 -4 0 8 -2 12 -5 9 -7 -7 5 -38 15
-38 4 0 10 11 12 25 6 29 3 32 -11 8z"/>
<path d="M2313 2047 c35 -14 37 -47 2 -47 -18 0 -25 5 -25 20 0 11 -4 20 -10
20 -15 0 -12 -30 6 -47 12 -12 20 -13 40 -5 41 19 25 73 -20 71 -18 -1 -16 -3
7 -12z"/>
<path d="M606 2025 c-9 -26 -7 -32 5 -12 6 10 9 21 6 23 -2 3 -7 -2 -11 -11z"/>
<path d="M1283 2026 c-13 -6 -23 -14 -23 -18 0 -5 -7 -8 -15 -8 -8 0 -37 -13
-65 -30 -28 -16 -57 -30 -65 -30 -8 0 -15 -4 -15 -9 0 -6 -32 -13 -71 -17 -38
-4 -76 -12 -82 -19 -7 -6 -19 -15 -27 -18 -25 -11 69 4 159 25 56 13 92 27
110 44 14 14 42 32 61 41 19 10 37 20 40 23 3 3 16 11 30 17 21 10 22 12 5 11
-11 0 -30 -5 -42 -12z"/>
<path d="M1390 2030 c20 -13 43 -13 35 0 -3 6 -16 10 -28 10 -18 0 -19 -2 -7
-10z"/>
<path d="M2114 2023 c2 -9 9 -19 16 -21 7 -3 10 0 6 7 -4 6 -2 11 4 11 7 0 14
-9 17 -20 4 -14 14 -20 34 -20 16 0 29 3 29 8 -1 14 -41 55 -47 48 -4 -4 -1
-11 7 -16 8 -5 12 -11 9 -15 -3 -3 -17 4 -32 15 -31 24 -46 26 -43 3z"/>
<path d="M2005 2000 c-10 -11 -26 -20 -37 -20 -10 0 -18 -7 -18 -15 0 -8 3
-15 8 -15 11 1 75 61 70 66 -3 2 -13 -5 -23 -16z"/>
<path d="M500 1980 c-14 -10 -22 -21 -20 -24 3 -2 16 4 30 14 14 10 22 21 20
24 -3 2 -16 -4 -30 -14z"/>
<path d="M562 1980 c-12 -19 -11 -20 8 -8 20 13 27 28 12 28 -4 0 -13 -9 -20
-20z"/>
<path d="M1491 1989 c8 -5 30 -9 50 -9 23 0 42 -7 54 -20 10 -11 24 -20 31
-20 17 0 28 -60 20 -114 -5 -29 -16 -53 -36 -72 -16 -16 -30 -33 -30 -38 0 -5
-14 -21 -30 -36 -28 -25 -34 -26 -75 -17 -44 10 -45 11 -45 49 0 21 7 55 15
76 13 33 13 35 0 17 -9 -11 -18 -30 -22 -42 -3 -13 -9 -23 -14 -23 -5 0 -9
-18 -9 -40 0 -35 -3 -40 -27 -45 -16 -4 -53 -13 -84 -21 -30 -8 -58 -14 -62
-14 -4 0 -7 20 -7 45 0 25 -4 45 -8 45 -11 0 -31 65 -35 115 -3 34 -4 32 -5
-12 -1 -29 3 -72 10 -96 6 -23 8 -59 4 -79 -6 -33 -13 -39 -72 -68 -68 -32
-112 -36 -124 -10 -18 36 -29 69 -41 123 -7 32 -18 57 -25 57 -6 0 -14 7 -18
15 -3 8 -15 15 -26 15 -11 0 -20 -7 -20 -15 0 -9 9 -15 23 -15 17 0 27 -10 40
-40 9 -22 17 -48 17 -59 0 -32 22 -82 48 -108 21 -21 29 -24 44 -14 33 21 231
82 316 98 69 13 90 13 128 3 40 -11 45 -16 42 -39 -3 -25 -6 -26 -83 -32 -71
-5 -74 -6 -25 -7 80 -4 100 -23 100 -101 l0 -61 -70 0 c-40 0 -70 -4 -70 -10
0 -5 15 -10 33 -10 18 0 38 -5 44 -11 8 -8 19 -8 42 2 l31 14 0 87 c0 48 5 90
10 93 6 3 10 25 10 49 0 28 7 49 20 64 11 12 20 25 20 29 0 5 13 20 28 33 37
32 52 78 52 154 0 69 -16 96 -65 114 -35 14 -125 14 -104 1z"/>
<path d="M1992 1945 c-22 -22 -23 -45 -2 -45 7 0 40 55 40 67 0 9 -17 -1 -38
-22z"/>
<path d="M2105 1919 c4 -24 3 -45 -4 -53 -8 -9 -8 -21 -2 -37 7 -18 10 -19 10
-6 1 9 5 17 10 17 14 0 22 -30 28 -107 5 -66 4 -74 -16 -90 -37 -30 -41 -153
-6 -199 20 -28 40 -5 29 33 -7 26 -8 26 -11 6 -12 -70 -38 30 -27 103 9 65 34
66 36 1 l1 -52 6 49 6 49 32 -64 c36 -69 45 -62 13 10 -27 59 -25 75 5 26 44
-74 75 -103 75 -71 0 7 -9 16 -20 19 -30 8 -74 108 -66 152 4 22 3 35 -4 35
-5 0 -10 5 -10 11 0 6 -6 17 -14 25 -11 11 -16 11 -20 1 -2 -6 -4 2 -4 18 1
17 -7 47 -17 69 -17 36 -17 39 -2 48 23 13 21 21 -9 35 l-26 12 7 -40z m84
-229 l-1 -45 -13 30 c-8 17 -14 45 -15 64 0 33 1 34 15 15 8 -10 14 -39 14
-64z"/>
<path d="M513 1929 c-18 -12 -33 -27 -33 -35 0 -7 -9 -18 -20 -24 -11 -6 -20
-16 -20 -22 0 -6 11 -1 25 12 14 13 25 29 25 37 0 7 6 13 13 13 8 0 22 9 32
20 23 25 18 25 -22 -1z"/>
<path d="M443 1921 c-13 -11 -23 -24 -23 -30 0 -6 -9 -15 -20 -21 -11 -6 -20
-15 -20 -20 0 -19 15 -9 39 25 13 19 32 37 42 40 10 4 19 11 19 16 0 14 -13
10 -37 -10z"/>
<path d="M2145 1910 c-3 -5 5 -21 19 -35 15 -14 26 -30 26 -35 0 -5 6 -15 13
-22 7 -7 19 -22 26 -33 11 -19 11 -18 5 5 l-7 25 22 -20 c13 -11 18 -21 11
-23 -22 -8 33 -42 68 -42 31 0 33 2 21 17 -41 50 -69 76 -75 70 -4 -4 -2 -7 4
-7 7 0 12 -7 12 -15 0 -20 -5 -19 -35 9 -16 15 -23 30 -19 40 5 12 0 16 -18
16 -30 0 -62 22 -56 40 3 10 7 9 19 -2 8 -9 26 -19 39 -23 l25 -7 -25 19 c-32
26 -67 37 -75 23z m79 -86 c3 -8 2 -12 -4 -9 -6 3 -10 10 -10 16 0 14 7 11 14
-7z m101 -64 c10 -11 13 -20 7 -20 -7 0 -12 5 -12 10 0 6 -5 10 -11 10 -5 0
-7 -4 -4 -10 9 -15 -4 -12 -21 4 -11 11 -11 16 -1 19 20 9 23 8 42 -13z"/>
<path d="M2228 1913 c12 -2 32 -2 45 0 12 2 2 4 -23 4 -25 0 -35 -2 -22 -4z"/>
<path d="M1495 1895 c-5 -11 -15 -28 -23 -37 -8 -10 -11 -18 -6 -18 14 1 46
49 41 63 -3 7 -8 4 -12 -8z"/>
<path d="M2306 1896 c3 -7 15 -19 27 -25 19 -10 14 -11 -28 -7 l-50 5 43 -16
c23 -8 50 -12 59 -9 14 6 12 11 -12 36 -31 32 -48 39 -39 16z"/>
<path d="M870 1862 c0 -14 -103 -119 -122 -125 -10 -4 -18 -11 -18 -17 0 -5
-11 -10 -25 -10 -13 0 -28 -6 -32 -13 -4 -8 -21 -20 -38 -28 -18 -9 -31 -23
-33 -37 l-3 -23 24 25 c14 14 38 28 54 31 74 16 131 61 180 145 14 25 31 48
37 52 7 5 4 8 -6 8 -10 0 -18 -4 -18 -8z"/>
<path d="M298 1767 c-38 -39 -66 -73 -63 -75 6 -6 135 128 135 139 0 13 2 14
-72 -64z"/>
<path d="M385 1791 c-22 -27 -52 -57 -68 -67 -15 -10 -30 -27 -33 -36 -3 -10
-12 -18 -20 -18 -8 0 -14 -4 -14 -10 0 -5 3 -10 6 -10 9 0 174 173 174 182 0
12 -2 10 -45 -41z"/>
<path d="M2005 1830 c-3 -5 3 -10 14 -10 11 0 21 -6 23 -14 2 -10 9 -6 23 12
16 22 16 24 2 13 -14 -11 -21 -11 -29 -3 -15 15 -25 15 -33 2z"/>
<path d="M1932 1787 c-12 -13 -22 -29 -22 -35 0 -17 60 -14 90 4 19 11 20 14
5 10 -64 -16 -73 -17 -79 -7 -4 6 -1 9 6 8 7 -2 9 -2 5 1 -4 2 0 10 10 17 10
7 15 16 12 19 -3 3 -15 -4 -27 -17z"/>
<path d="M1990 1790 c-14 -11 -22 -20 -18 -20 14 0 58 23 58 32 0 13 -13 9
-40 -12z"/>
<path d="M2070 1783 c-14 -7 -19 -13 -12 -13 17 0 15 -29 -3 -36 -8 -4 -15
-10 -15 -15 0 -19 16 -8 35 23 17 29 19 30 26 12 5 -12 8 -13 8 -4 0 8 -3 22
-7 31 -6 13 -11 13 -32 2z"/>
<path d="M2015 1725 c-11 -19 -16 -37 -12 -41 4 -4 7 0 7 9 0 10 4 17 9 17 8
0 23 41 17 47 -1 2 -11 -12 -21 -32z"/>
<path d="M2076 1698 l-17 -33 20 24 c18 20 27 41 18 41 -1 0 -11 -15 -21 -32z"/>
<path d="M2216 1713 c-6 -14 -5 -15 5 -6 7 7 10 15 7 18 -3 3 -9 -2 -12 -12z"/>
<path d="M2240 1704 c0 -6 7 -19 15 -30 8 -10 14 -14 14 -9 0 6 -6 19 -14 29
-8 11 -15 15 -15 10z"/>
<path d="M2221 1685 c1 -19 18 -51 18 -35 0 8 -4 22 -9 30 -5 8 -9 11 -9 5z"/>
<path d="M171 1630 c-52 -52 -52 -55 -24 -110 11 -22 13 -23 13 -5 0 11 -7 30
-15 42 -8 12 -11 23 -7 25 11 5 96 98 88 98 -3 0 -28 -23 -55 -50z"/>
<path d="M2011 1652 c-13 -24 1 -39 17 -19 6 7 7 18 3 26 -7 11 -11 9 -20 -7z"/>
<path d="M2345 1641 c-9 -16 3 -31 26 -31 14 0 19 6 17 17 -4 20 -33 29 -43
14z"/>
<path d="M2271 1625 c0 -11 4 -29 9 -40 8 -18 9 -18 9 5 0 14 -4 32 -9 40 -8
12 -10 12 -9 -5z"/>
<path d="M2240 1624 c0 -13 18 -39 24 -34 2 3 -2 14 -10 24 -8 11 -14 16 -14
10z"/>
<path d="M194 1589 c-21 -23 -20 -52 2 -83 18 -27 18 0 0 33 -12 22 -11 27 12
48 14 12 20 23 15 23 -5 0 -18 -9 -29 -21z"/>
<path d="M1571 1547 c-8 -28 -10 -80 -7 -152 4 -61 9 -167 12 -237 5 -128 5
-128 30 -128 13 0 24 6 24 13 1 6 1 129 0 272 -1 260 -3 274 -36 275 -6 0 -17
-19 -23 -43z"/>
<path d="M591 1564 c0 -11 3 -14 6 -6 3 7 2 16 -1 19 -3 4 -6 -2 -5 -13z"/>
<path d="M2177 1548 c-4 -14 -10 -34 -13 -45 -5 -13 -2 -12 10 5 10 12 16 32
14 45 -3 21 -4 20 -11 -5z"/>
<path d="M684 1547 c3 -10 6 -23 6 -29 0 -7 23 -9 66 -5 36 2 74 3 85 0 22 -6
25 -34 7 -63 -10 -16 -9 -23 10 -43 17 -18 22 -35 22 -81 0 -56 1 -58 23 -51
12 4 49 13 82 20 l60 13 -47 1 c-51 1 -63 16 -25 30 13 5 28 16 35 24 7 8 28
18 47 21 19 4 37 11 40 16 9 15 -37 11 -65 -5 -14 -8 -34 -14 -45 -15 -11 0
-27 -9 -35 -20 -20 -28 -40 -25 -40 5 0 14 5 25 10 25 6 0 10 5 10 10 0 6 -16
10 -36 10 -30 0 -35 3 -29 18 14 38 16 71 5 91 -10 20 -18 22 -91 19 -62 -2
-82 1 -90 12 -9 12 -10 12 -5 -3z"/>
<path d="M1266 1531 c-4 -5 3 -7 14 -4 23 6 26 13 6 13 -8 0 -17 -4 -20 -9z"/>
<path d="M630 1480 c14 -11 34 -20 44 -20 27 0 13 11 -32 26 l-37 13 25 -19z"/>
<path d="M2236 1465 c3 -22 12 -51 20 -65 l15 -25 -5 25 c-2 14 -12 43 -21 65
l-16 40 7 -40z"/>
<path d="M161 1472 c-1 -19 23 -92 31 -92 3 0 9 -18 13 -40 7 -42 25 -65 25
-31 0 11 -4 23 -10 26 -5 3 -10 13 -10 22 0 8 -6 29 -14 46 -7 18 -18 43 -24
57 -6 14 -11 19 -11 12z"/>
<path d="M210 1461 c0 -11 5 -23 10 -26 6 -3 10 3 10 14 0 11 -4 23 -10 26 -5
3 -10 -3 -10 -14z"/>
<path d="M1345 1470 c-5 -8 -41 -9 -116 -4 -97 6 -109 5 -109 -10 0 -14 14
-16 113 -15 61 1 132 -1 157 -4 25 -3 35 -3 23 -1 -34 8 -28 24 9 24 43 0 33
6 -24 14 -30 5 -49 3 -53 -4z"/>
<path d="M740 1448 c19 -5 43 -14 53 -19 10 -5 17 -5 17 0 0 11 -56 31 -84 30
-14 -1 -9 -4 14 -11z"/>
<path d="M970 1430 c-9 -6 -10 -10 -3 -10 6 0 15 5 18 10 8 12 4 12 -15 0z"/>
<path d="M1245 1395 c22 -7 54 -13 70 -13 l30 0 -35 10 c-19 5 -51 11 -70 13
l-35 4 40 -14z"/>
<path d="M2230 1342 c9 -38 22 -77 28 -88 11 -18 11 -18 12 3 0 12 -4 24 -9
28 -5 3 -15 30 -22 61 -7 30 -16 57 -20 59 -4 3 1 -26 11 -63z"/>
<path d="M230 1386 c0 -8 5 -18 10 -21 6 -3 10 1 10 9 0 8 -4 18 -10 21 -5 3
-10 -1 -10 -9z"/>
<path d="M698 1383 c-10 -2 -21 -15 -24 -29 -3 -13 -10 -24 -15 -24 -5 0 -9
-15 -9 -34 0 -36 32 -86 56 -86 8 0 14 -8 15 -17 0 -10 1 -92 2 -183 1 -102 6
-165 12 -165 6 0 10 66 10 179 0 151 2 180 15 184 34 11 50 35 50 78 0 86 -36
117 -112 97z"/>
<path d="M316 1361 c-15 -17 -15 -19 -1 -25 41 -15 62 7 32 33 -11 8 -18 6
-31 -8z m34 -11 c0 -5 -7 -10 -15 -10 -8 0 -15 5 -15 10 0 6 7 10 15 10 8 0
15 -4 15 -10z"/>
<path d="M2270 1351 c0 -11 5 -23 10 -26 6 -3 10 3 10 14 0 11 -4 23 -10 26
-5 3 -10 -3 -10 -14z"/>
<path d="M2135 1350 c-4 -6 -1 -18 6 -26 14 -17 31 0 22 23 -6 16 -19 17 -28
3z"/>
<path d="M250 1325 c0 -12 4 -25 9 -30 5 -6 14 -26 20 -45 l11 -35 -6 40 c-3
22 -12 51 -19 65 -13 23 -14 23 -15 5z"/>
<path d="M1398 1333 c6 -2 18 -2 25 0 6 3 1 5 -13 5 -14 0 -19 -2 -12 -5z"/>
<path d="M1105 1320 c-25 -5 11 -7 100 -8 77 0 149 3 160 8 24 10 -201 10
-260 0z"/>
<path d="M1015 1281 c-34 -16 -86 -92 -66 -99 6 -2 11 -8 11 -13 0 -6 11 -22
25 -37 21 -23 33 -27 78 -27 43 1 57 6 78 27 25 25 45 98 27 98 -4 0 -18 12
-31 26 -26 28 -87 40 -122 25z"/>
<path d="M1302 1280 c-12 -5 -27 -21 -34 -34 -6 -14 -14 -23 -18 -21 -16 10
12 -81 31 -100 15 -15 32 -20 76 -19 35 0 58 5 61 12 2 7 9 18 15 25 33 36 35
52 11 87 -38 55 -86 72 -142 50z"/>
<path d="M2290 1275 c0 -8 4 -23 9 -33 5 -9 14 -30 20 -46 7 -16 14 -26 18
-23 3 4 -2 22 -11 41 -9 19 -16 41 -16 49 0 9 -4 19 -10 22 -5 3 -10 -1 -10
-10z"/>
<path d="M230 1243 c0 -12 5 -25 10 -28 13 -8 13 15 0 35 -8 12 -10 11 -10 -7z"/>
<path d="M366 1245 c-3 -8 -1 -25 4 -37 l9 -23 0 23 c1 13 5 20 11 17 15 -9
12 11 -4 24 -10 9 -15 8 -20 -4z"/>
<path d="M2270 1206 c0 -8 5 -18 10 -21 6 -3 10 1 10 9 0 8 -4 18 -10 21 -5 3
-10 -1 -10 -9z"/>
<path d="M403 1143 c1 -40 5 -67 9 -60 10 15 9 86 -2 112 -5 13 -7 -6 -7 -52z"/>
<path d="M250 1186 c0 -8 -5 -16 -11 -18 -15 -5 -2 -48 14 -45 15 3 65 -91 66
-123 0 -25 0 -25 -15 -5 -16 19 -16 19 -10 -5 7 -24 6 -24 -18 5 -14 17 -26
25 -26 18 0 -6 18 -27 40 -46 22 -19 40 -39 40 -44 0 -13 25 -24 34 -16 3 4 6
33 6 65 0 43 4 60 15 64 8 4 15 10 15 15 0 4 -7 6 -15 3 -12 -5 -15 4 -15 47
0 29 -3 50 -6 47 -3 -4 -5 -59 -5 -124 0 -103 -1 -115 -14 -98 -8 10 -15 39
-15 63 0 24 -8 57 -19 75 -10 17 -26 55 -36 84 -17 52 -25 65 -25 38z"/>
<path d="M342 1180 c-6 -11 -12 -28 -12 -37 1 -13 5 -10 16 10 18 33 15 57 -4
27z"/>
<path d="M2344 1129 c6 -32 3 -39 -26 -62 -17 -15 -29 -29 -26 -33 4 -3 20 7
37 22 32 28 40 66 20 94 -8 11 -9 6 -5 -21z"/>
<path d="M2290 1122 c0 -16 -7 -35 -15 -42 -8 -7 -15 -17 -15 -23 0 -5 11 3
25 19 26 30 32 58 15 69 -6 4 -10 -6 -10 -23z"/>
<path d="M231 1083 c-1 -18 4 -33 9 -33 12 0 12 17 0 45 -7 17 -9 15 -9 -12z"/>
<path d="M262 1070 c7 -10 14 -18 15 -16 6 6 -9 36 -18 36 -5 0 -4 -9 3 -20z"/>
<path d="M330 1066 c0 -9 5 -16 10 -16 6 0 10 4 10 9 0 6 -4 13 -10 16 -5 3
-10 -1 -10 -9z"/>
<path d="M1043 1060 c-18 -10 -40 -23 -48 -30 -23 -19 -99 -30 -134 -20 -38
11 -41 -5 -8 -37 49 -46 233 -47 320 -3 38 20 38 20 83 -1 64 -28 141 -39 213
-29 73 10 111 28 122 56 7 20 5 21 -24 15 -46 -10 -112 -2 -134 17 -48 42 -65
46 -213 47 -119 2 -151 -1 -177 -15z"/>
<path d="M160 1060 c0 -5 3 -9 8 -7 4 1 7 -2 7 -8 0 -5 -3 -9 -7 -7 -5 1 -8
-2 -8 -8 0 -12 3 -12 24 -4 24 9 20 44 -4 44 -11 0 -20 -4 -20 -10z"/>
<path d="M487 1054 c-3 -3 -3 -13 0 -22 4 -9 2 -13 -4 -9 -11 7 -63 -39 -63
-56 0 -5 9 2 21 17 11 14 26 26 33 26 13 0 46 31 46 43 0 9 -25 9 -33 1z"/>
<path d="M2216 1015 c-16 -19 -35 -35 -43 -35 -7 0 -13 -6 -13 -14 0 -7 -14
-25 -32 -39 -17 -15 -29 -29 -26 -32 6 -7 148 135 148 147 0 13 -3 10 -34 -27z"/>
<path d="M511 998 c-1 -9 -5 -18 -10 -20 -4 -1 -11 -14 -15 -28 -6 -22 -4 -21
14 7 12 18 19 38 17 45 -4 8 -6 7 -6 -4z"/>
<path d="M2210 950 c-28 -27 -46 -50 -40 -50 12 0 70 59 70 71 0 5 7 9 15 9 8
0 15 5 15 10 0 17 -8 12 -60 -40z"/>
<path d="M445 944 c-19 -36 -20 -36 -26 -13 -4 14 -7 17 -8 7 -2 -29 10 -46
28 -41 12 3 17 11 14 22 -2 10 3 23 11 30 17 14 21 31 8 31 -4 0 -16 -16 -27
-36z"/>
<path d="M163 948 c2 -7 13 -12 23 -10 14 2 15 0 6 -6 -10 -7 -5 -18 22 -47
20 -21 36 -34 36 -28 0 5 -5 14 -12 21 -6 6 -8 15 -4 19 4 4 11 1 16 -7 5 -8
12 -11 17 -7 4 5 1 12 -7 17 -10 7 -11 10 -2 10 21 0 13 16 -15 29 -26 11 -27
10 -8 -4 17 -14 18 -17 5 -25 -19 -12 -35 -7 -36 11 -1 8 -2 20 -3 27 0 6 -10
12 -22 12 -12 0 -19 -5 -16 -12z"/>
<path d="M540 938 c-42 -12 -57 -23 -75 -58 -14 -26 -13 -27 18 -28 40 -2 67
6 67 19 0 6 -7 6 -19 -1 -31 -16 -51 -12 -51 10 0 33 108 70 117 40 4 -12 3
-13 -5 -1 -5 7 -15 10 -22 6 -9 -6 -9 -9 1 -16 10 -6 11 -9 2 -9 -7 0 -13 -5
-13 -10 0 -6 11 -3 25 6 29 19 34 54 8 53 -10 0 -34 -5 -53 -11z"/>
<path d="M285 887 c0 -12 4 -28 9 -36 7 -10 3 -12 -15 -6 -23 7 -24 7 -4 -9
11 -8 27 -16 36 -16 8 0 24 -7 35 -15 15 -11 16 -17 6 -23 -9 -6 -2 -14 23
-28 22 -11 38 -29 42 -44 3 -14 10 -31 16 -37 6 -9 6 -13 -1 -13 -6 0 -14 5
-17 10 -3 6 -11 10 -16 10 -6 0 -7 -4 -4 -10 3 -5 2 -10 -4 -10 -6 0 -15 9
-21 20 -7 13 -21 20 -40 20 -17 0 -30 -2 -30 -5 0 -12 40 -48 47 -42 3 4 1 7
-5 7 -7 0 -12 5 -12 10 0 15 19 12 37 -6 9 -8 24 -13 34 -11 14 4 19 0 19 -14
0 -24 -35 -26 -49 -1 -10 16 -10 16 -11 0 0 -14 -9 -18 -37 -18 -48 0 -75 -15
-53 -29 9 -7 17 -6 21 1 6 9 29 7 94 -8 20 -5 20 -5 1 10 -19 15 -19 16 7 16
15 0 27 -3 27 -7 0 -5 12 -13 26 -20 34 -16 28 7 -7 25 -24 12 -24 12 8 10 17
-1 30 -5 27 -9 -2 -4 0 -10 6 -14 5 -3 10 1 10 9 0 23 18 20 22 -4 2 -15 6
-17 18 -9 11 8 12 12 3 16 -7 2 -13 11 -13 18 0 21 -21 29 -32 14 -7 -10 -8
-6 -4 13 8 34 -4 118 -17 118 -5 0 -7 -8 -4 -18 2 -11 1 -37 -2 -58 l-6 -39
-19 40 c-24 50 -27 132 -6 145 10 7 11 10 3 10 -7 0 -13 8 -14 18 0 13 -3 11
-10 -6 -11 -29 -29 -20 -29 16 -1 23 -2 24 -11 10 -7 -13 -4 -29 11 -60 23
-49 23 -48 10 -48 -14 0 -58 49 -66 74 -4 11 -14 28 -23 37 -16 18 -17 17 -16
-4z m165 -247 c0 -5 -2 -10 -4 -10 -3 0 -8 5 -11 10 -3 6 -1 10 4 10 6 0 11
-4 11 -10z"/>
<path d="M508 903 c-10 -2 -18 -9 -18 -14 0 -12 3 -12 36 6 28 14 19 18 -18 8z"/>
<path d="M1111 876 c-39 -63 -24 -93 59 -123 50 -18 50 -18 50 -61 0 -47 -14
-68 -51 -75 -13 -2 17 -4 66 -4 50 0 76 2 58 4 -28 4 -33 9 -39 39 -9 47 2 82
29 89 46 13 88 41 93 62 3 12 -4 38 -18 62 l-23 41 -102 0 -101 0 -21 -34z"/>
<path d="M2097 830 c-31 -33 -54 -60 -50 -60 7 0 113 108 113 115 0 10 -7 4
-63 -55z"/>
<path d="M2058 859 c-23 -25 -7 -25 23 1 16 13 19 19 9 19 -8 0 -23 -9 -32
-20z"/>
<path d="M150 831 c0 -5 14 -19 30 -31 17 -12 30 -17 30 -11 0 5 -9 13 -20 16
-28 9 -26 29 3 21 12 -4 36 -9 52 -12 l30 -5 -25 15 c-27 17 -100 22 -100 7z"/>
<path d="M1969 759 c-32 -34 -59 -66 -59 -72 0 -6 1 -8 3 -6 1 3 31 35 67 72
35 37 61 67 57 67 -5 0 -35 -28 -68 -61z"/>
<path d="M294 798 c18 -15 18 -15 -7 -22 -14 -3 -34 -3 -44 0 -13 5 -15 4 -7
-5 15 -16 94 -3 94 15 0 8 -4 14 -9 14 -5 0 -18 3 -28 6 -17 6 -17 6 1 -8z"/>
<path d="M511 763 c-1 -12 -7 -23 -13 -26 -7 -2 -10 -7 -7 -11 4 -4 19 4 33
17 27 25 37 49 12 28 -11 -9 -15 -9 -19 1 -3 7 -6 3 -6 -9z"/>
<path d="M2000 730 c-19 -16 -32 -31 -29 -34 6 -6 19 3 48 37 32 35 25 34 -19
-3z"/>
<path d="M530 715 c-13 -14 -20 -28 -17 -32 4 -3 7 -1 7 5 0 7 11 12 25 12 15
0 25 6 25 14 0 26 -16 26 -40 1z"/>
<path d="M186 705 c-6 -15 21 -55 37 -55 5 0 1 7 -8 16 -9 9 -13 24 -10 35 7
22 -10 26 -19 4z"/>
<path d="M1858 647 c-26 -31 -166 -180 -249 -264 -38 -39 -45 -42 -83 -38
l-41 4 41 -11 c37 -9 44 -8 69 13 15 13 33 30 39 37 14 16 136 148 210 226 31
33 56 61 56 63 0 11 -19 -2 -42 -30z"/>
<path d="M1933 663 c-13 -9 -23 -22 -23 -29 0 -8 -4 -14 -10 -14 -5 0 -15 -10
-21 -22 -11 -23 -11 -23 15 1 14 14 26 30 26 38 0 7 6 13 14 13 8 0 18 5 21
11 11 17 2 18 -22 2z"/>
<path d="M843 663 c-7 -2 -9 -11 -6 -20 3 -8 0 -19 -8 -25 -11 -8 -10 -9 4 -4
22 7 23 -17 1 -38 -8 -9 -12 -22 -8 -28 4 -7 4 -10 -1 -6 -4 4 -14 3 -22 -3
-9 -8 -13 -8 -13 -1 0 6 5 14 10 17 6 3 10 12 10 18 0 7 -11 -1 -24 -16 -16
-19 -26 -24 -29 -15 -2 7 -3 5 -1 -5 3 -24 -25 -57 -50 -57 -10 0 -36 5 -58
12 l-39 12 28 13 28 13 -35 -6 c-33 -6 -34 -6 -20 12 11 15 11 17 0 7 -17 -16
-59 -18 -44 -3 12 12 6 70 -6 70 -16 0 -16 -35 0 -47 13 -11 12 -12 -7 -13
-24 0 -29 -28 -11 -66 7 -15 5 -32 -6 -59 -9 -20 -16 -47 -16 -58 0 -20 0 -20
-15 -1 -14 19 -14 19 -15 -2 0 -12 6 -27 13 -33 23 -18 48 19 41 60 -4 26 -3
30 5 19 8 -11 11 -3 11 37 0 32 -5 53 -12 56 -7 2 -10 7 -7 11 9 10 73 -18 96
-41 20 -20 53 -27 53 -11 0 5 9 4 19 -2 27 -14 41 -13 35 4 -4 11 11 15 73 17
85 4 126 24 153 73 14 28 9 43 -11 31 -6 -4 -27 -9 -46 -10 -19 -1 -39 -7 -45
-13 -9 -9 -3 -9 22 -2 19 6 42 7 52 4 26 -8 3 -40 -42 -58 -46 -18 -155 -19
-140 -1 16 20 48 25 54 9 3 -8 11 -14 18 -14 9 0 9 3 -2 11 -11 8 -12 12 -2
16 6 2 12 13 12 23 0 10 5 22 11 26 7 4 8 21 5 43 -5 26 -4 32 3 21 6 -8 11
-10 11 -5 0 17 -15 32 -27 28z"/>
<path d="M783 608 c-20 -26 -26 -41 -15 -34 12 7 36 46 29 46 -3 0 -9 -6 -14
-12z"/>
<path d="M638 581 c-4 -28 -4 -29 19 -14 28 18 30 43 4 43 -13 0 -20 -9 -23
-29z"/>
<path d="M332 567 c41 -13 39 -24 -7 -47 -56 -28 -60 -50 -7 -50 31 1 34 2 19
11 -10 6 -26 8 -35 4 -31 -11 1 12 52 39 52 27 93 35 80 14 -5 -8 -2 -9 10 -5
10 4 20 7 22 7 2 0 4 4 4 9 0 4 -28 12 -62 15 -35 4 -74 9 -88 11 -14 3 -8 -1
12 -8z"/>
<path d="M680 560 c-6 -12 -9 -24 -6 -27 3 -3 8 1 12 10 3 9 12 13 21 10 10
-4 14 -2 11 7 -7 23 -26 22 -38 0z"/>
<path d="M1772 492 c-126 -135 -152 -166 -146 -171 3 -3 9 1 14 9 5 8 35 43
68 78 134 141 161 172 150 172 -2 0 -41 -40 -86 -88z"/>
<path d="M1055 551 c-3 -7 0 -8 9 -5 9 3 16 2 16 -4 0 -6 -6 -13 -12 -15 -8
-3 -5 -6 5 -6 12 -1 17 5 15 16 -4 20 -24 28 -33 14z"/>
<path d="M895 540 c-3 -5 -2 -10 4 -10 5 0 13 5 16 10 3 6 2 10 -4 10 -5 0
-13 -4 -16 -10z"/>
<path d="M437 519 c-9 -6 -26 -8 -36 -4 -10 3 -31 0 -46 -7 -24 -11 -25 -13
-8 -19 10 -4 29 -5 43 -2 l25 6 -22 -25 c-13 -13 -23 -28 -23 -33 0 -5 12 6
28 25 15 18 41 41 57 51 31 19 14 27 -18 8z m-47 -19 c-20 -13 -33 -13 -25 0
3 6 14 10 23 10 15 0 15 -2 2 -10z"/>
<path d="M860 520 c-9 -6 -10 -10 -3 -10 6 0 15 5 18 10 8 12 4 12 -15 0z"/>
<path d="M487 493 c4 -11 3 -14 -5 -9 -8 5 -10 2 -6 -8 8 -20 20 -20 28 0 9
25 7 34 -9 34 -9 0 -12 -6 -8 -17z"/>
<path d="M432 450 c-12 -12 -22 -25 -22 -31 0 -6 -4 -8 -9 -4 -5 3 -13 0 -17
-6 -4 -8 -9 -7 -15 2 -6 10 -9 6 -9 -13 0 -24 3 -26 23 -19 12 4 27 17 32 28
6 11 15 18 21 16 6 -2 17 3 24 12 9 11 9 15 1 15 -7 0 -9 5 -6 10 10 16 1 12
-23 -10z m18 -10 c0 -5 -5 -10 -11 -10 -5 0 -7 5 -4 10 3 6 8 10 11 10 2 0 4
-4 4 -10z"/>
<path d="M960 460 c0 -13 11 -13 30 0 12 8 11 10 -7 10 -13 0 -23 -4 -23 -10z"/>
<path d="M1080 460 c20 -13 53 -13 45 0 -3 6 -18 10 -33 10 -21 0 -24 -2 -12
-10z"/>
<path d="M671 423 c-1 -17 -5 -35 -11 -38 -16 -10 -12 -49 10 -99 41 -91 67
-39 34 67 -33 108 -32 106 -33 70z m25 -114 l5 -64 -16 34 c-18 39 -21 121 -4
104 6 -6 13 -39 15 -74z"/>
<path d="M703 436 c9 -7 17 -24 17 -37 0 -13 5 -31 10 -39 8 -11 9 -8 4 11 -8
36 8 43 39 19 35 -28 45 -25 17 5 -13 14 -31 25 -41 25 -9 0 -22 7 -29 15 -7
8 -18 15 -24 15 -6 0 -3 -7 7 -14z"/>
<path d="M760 439 c0 -6 9 -9 20 -6 13 3 18 1 13 -6 -4 -7 0 -8 11 -4 10 4 27
7 39 7 18 0 19 2 7 10 -21 13 -90 13 -90 -1z"/>
<path d="M1131 441 c-9 -6 -10 -11 -2 -15 13 -8 31 1 31 15 0 11 -11 11 -29 0z"/>
<path d="M907 423 c17 -2 34 -11 37 -19 6 -15 -1 -14 -84 7 -50 13 -55 11 -37
-9 10 -10 17 -23 17 -29 0 -11 42 -53 54 -53 5 0 -2 9 -15 19 -14 11 -20 23
-15 28 5 4 11 2 13 -4 3 -7 12 -13 21 -13 15 1 14 3 -3 16 -11 8 -25 12 -32
10 -7 -3 -10 1 -6 10 3 7 6 14 7 14 13 0 114 -35 124 -42 8 -7 12 -7 12 1 0 6
-6 11 -12 11 -10 0 -10 2 0 8 9 6 5 12 -15 23 -28 13 -27 14 32 20 52 5 47 6
-35 6 -52 0 -81 -2 -63 -4z"/>
<path d="M591 407 c-1 -22 26 -34 42 -18 8 8 8 14 -1 23 -9 9 -12 8 -12 -5 0
-22 -17 -22 -23 1 -4 16 -5 16 -6 -1z"/>
<path d="M1083 409 c-6 -6 -26 -15 -45 -19 -26 -6 -20 -7 32 -7 36 1 57 3 47
5 -14 3 -16 7 -6 18 9 11 8 14 -3 14 -8 0 -19 -5 -25 -11z"/>
<path d="M1220 411 c0 -10 125 -42 157 -40 10 0 -9 7 -42 15 -33 7 -68 18 -77
24 -22 12 -38 13 -38 1z"/>
<path d="M740 394 c0 -11 59 -78 65 -73 1 2 -12 22 -31 43 -19 22 -34 35 -34
30z"/>
<path d="M1175 369 c69 -17 102 -21 84 -10 -8 5 -40 12 -70 15 -52 5 -52 5
-14 -5z"/>
<path d="M1410 360 c20 -13 53 -13 45 0 -3 6 -18 10 -33 10 -21 0 -24 -2 -12
-10z"/>
<path d="M816 335 c4 -8 10 -15 15 -15 5 0 9 -7 9 -15 0 -8 -5 -15 -11 -15 -5
0 -7 -5 -4 -10 4 -6 11 -7 17 -4 6 4 6 -2 -1 -15 -10 -17 -9 -21 4 -21 19 0
19 30 1 75 -14 33 -42 52 -30 20z"/>
<path d="M930 340 c8 -5 20 -10 25 -10 6 0 3 5 -5 10 -8 5 -19 10 -25 10 -5 0
-3 -5 5 -10z"/>
<path d="M1043 325 c47 -33 43 -41 -9 -20 l-39 16 25 -20 c14 -11 37 -21 53
-21 24 0 26 2 15 19 -7 11 -23 25 -37 32 -45 23 -47 22 -8 -6z"/>
<path d="M1335 335 c22 -8 51 -13 65 -13 15 0 5 5 -25 14 -63 17 -94 16 -40
-1z"/>
<path d="M751 313 c7 -12 15 -20 18 -17 3 2 -3 12 -13 22 -17 16 -18 16 -5 -5z"/>
<path d="M934 306 c31 -17 66 -22 51 -7 -6 5 -26 12 -45 16 l-35 6 29 -15z"/>
<path d="M1480 306 c40 -17 85 -21 60 -7 -8 5 -33 12 -55 15 l-40 6 35 -14z"/>
<path d="M1590 305 c-10 -12 -10 -15 4 -15 9 0 16 7 16 15 0 8 -2 15 -4 15 -2
0 -9 -7 -16 -15z"/>
<path d="M1212 298 c-14 -14 2 -38 24 -38 20 0 17 18 -3 23 -17 4 -17 5 0 6 9
0 17 6 17 11 0 14 -23 13 -38 -2z"/>
<path d="M795 270 c10 -11 20 -20 22 -20 2 0 -1 9 -7 20 -6 11 -16 20 -22 20
-6 0 -3 -9 7 -20z"/>
</g>
</svg>
